<svg xmlns="http://www.w3.org/2000/svg" viewBox="0 0 1200 900">
  <defs>
    <linearGradient id="bg" x1="0" x2="1" y1="0" y2="1">
      <stop offset="0" stop-color="#070b14"/>
      <stop offset="1" stop-color="#0b1220"/>
    </linearGradient>
    <linearGradient id="ink" x1="0" x2="1" y1="0" y2="0">
      <stop offset="0" stop-color="#66e3ff"/>
      <stop offset="1" stop-color="#a78bfa"/>
    </linearGradient>
  </defs>
  <rect width="1200" height="900" fill="url(#bg)"/>
  <rect x="90" y="130" width="1020" height="640" rx="36" fill="rgba(255,255,255,0.05)" stroke="rgba(255,255,255,0.12)"/>
  <rect x="140" y="190" width="450" height="520" rx="24" fill="rgba(255,255,255,0.04)" stroke="rgba(255,255,255,0.12)"/>
  <rect x="630" y="190" width="430" height="300" rx="24" fill="rgba(255,255,255,0.04)" stroke="rgba(255,255,255,0.12)"/>
  <rect x="630" y="520" width="430" height="190" rx="24" fill="rgba(255,255,255,0.04)" stroke="rgba(255,255,255,0.12)"/>
  <g opacity="0.9" transform="translate(175,235)">
    <rect x="0" y="0" width="380" height="48" rx="14" fill="rgba(255,255,255,0.06)"/>
    <rect x="0" y="72" width="340" height="18" rx="9" fill="rgba(255,255,255,0.08)"/>
    <rect x="0" y="110" width="360" height="18" rx="9" fill="rgba(255,255,255,0.08)"/>
    <rect x="0" y="148" width="300" height="18" rx="9" fill="rgba(255,255,255,0.08)"/>
    <rect x="0" y="210" width="380" height="18" rx="9" fill="rgba(255,255,255,0.08)"/>
    <rect x="0" y="248" width="340" height="18" rx="9" fill="rgba(255,255,255,0.08)"/>
    <rect x="0" y="286" width="360" height="18" rx="9" fill="rgba(255,255,255,0.08)"/>
    <rect x="0" y="324" width="260" height="18" rx="9" fill="rgba(255,255,255,0.08)"/>
    <rect x="0" y="386" width="380" height="18" rx="9" fill="rgba(255,255,255,0.08)"/>
    <rect x="0" y="424" width="320" height="18" rx="9" fill="rgba(255,255,255,0.08)"/>
  </g>
  <g transform="translate(690,230)">
    <circle cx="70" cy="70" r="54" fill="rgba(102,227,255,0.16)" stroke="rgba(255,255,255,0.12)"/>
    <circle cx="70" cy="70" r="22" fill="rgba(255,255,255,0.12)"/>
    <rect x="140" y="36" width="290" height="18" rx="9" fill="rgba(255,255,255,0.10)"/>
    <rect x="140" y="72" width="240" height="18" rx="9" fill="rgba(255,255,255,0.08)"/>
    <rect x="140" y="108" width="280" height="18" rx="9" fill="rgba(255,255,255,0.08)"/>
    <rect x="0" y="176" width="390" height="12" rx="6" fill="url(#ink)" opacity="0.85"/>
    <rect x="0" y="206" width="330" height="12" rx="6" fill="rgba(255,255,255,0.10)"/>
    <rect x="0" y="236" width="360" height="12" rx="6" fill="rgba(255,255,255,0.10)"/>
  </g>
  <g transform="translate(660,554)">
    <rect x="0" y="0" width="390" height="56" rx="18" fill="rgba(255,255,255,0.06)" stroke="rgba(255,255,255,0.12)"/>
    <rect x="18" y="18" width="190" height="20" rx="10" fill="rgba(255,255,255,0.10)"/>
    <rect x="228" y="18" width="144" height="20" rx="10" fill="rgba(102,227,255,0.14)" stroke="rgba(102,227,255,0.22)"/>
    <rect x="0" y="88" width="390" height="18" rx="9" fill="rgba(255,255,255,0.08)"/>
    <rect x="0" y="120" width="330" height="18" rx="9" fill="rgba(255,255,255,0.08)"/>
  </g>
  <text x="56" y="92" fill="rgba(255,255,255,0.70)" font-family="system-ui,Segoe UI,Arial" font-size="28" font-weight="700">
    Logs & sampling support
  </text>
</svg>

