<svg xmlns="http://www.w3.org/2000/svg" viewBox="0 0 1200 900">
  <defs>
    <linearGradient id="sky" x1="0" x2="1" y1="0" y2="1">
      <stop offset="0" stop-color="#0b1220"/>
      <stop offset="1" stop-color="#050816"/>
    </linearGradient>
    <linearGradient id="a" x1="0" x2="1" y1="0" y2="0">
      <stop offset="0" stop-color="#66e3ff" stop-opacity="0.9"/>
      <stop offset="1" stop-color="#a78bfa" stop-opacity="0.9"/>
    </linearGradient>
    <filter id="g" x="-20%" y="-20%" width="140%" height="140%">
      <feGaussianBlur stdDeviation="22"/>
    </filter>
  </defs>
  <rect width="1200" height="900" fill="url(#sky)"/>
  <circle cx="250" cy="230" r="210" fill="#66e3ff" opacity="0.22" filter="url(#g)"/>
  <circle cx="920" cy="170" r="240" fill="#a78bfa" opacity="0.18" filter="url(#g)"/>
  <rect x="0" y="560" width="1200" height="340" fill="#070b14"/>
  <g opacity="0.7">
    <path d="M0 600 C200 560, 420 640, 620 610 C820 580, 980 520, 1200 590 L1200 900 L0 900 Z" fill="#0b1220"/>
  </g>
  <g transform="translate(220,310)">
    <rect x="0" y="120" width="760" height="26" rx="13" fill="rgba(255,255,255,0.10)"/>
    <rect x="80" y="38" width="120" height="212" rx="18" fill="rgba(255,255,255,0.08)" stroke="rgba(255,255,255,0.16)"/>
    <rect x="620" y="58" width="120" height="192" rx="18" fill="rgba(255,255,255,0.08)" stroke="rgba(255,255,255,0.16)"/>
    <path d="M190 80 L520 80 L620 250 L290 250 Z" fill="rgba(255,255,255,0.06)" stroke="rgba(255,255,255,0.14)"/>
    <rect x="316" y="-40" width="30" height="310" rx="15" fill="url(#a)"/>
    <rect x="360" y="10" width="8" height="250" rx="4" fill="rgba(255,255,255,0.22)"/>
    <circle cx="140" cy="260" r="44" fill="rgba(255,255,255,0.08)" stroke="rgba(255,255,255,0.16)"/>
    <circle cx="660" cy="260" r="44" fill="rgba(255,255,255,0.08)" stroke="rgba(255,255,255,0.16)"/>
    <circle cx="140" cy="260" r="22" fill="rgba(255,255,255,0.12)"/>
    <circle cx="660" cy="260" r="22" fill="rgba(255,255,255,0.12)"/>
  </g>
  <text x="56" y="92" fill="rgba(255,255,255,0.70)" font-family="system-ui,Segoe UI,Arial" font-size="28" font-weight="700">
    JR Drilling  equipment on site
  </text>
</svg>

