<svg xmlns="http://www.w3.org/2000/svg" viewBox="0 0 1200 900">
  <defs>
    <linearGradient id="bg" x1="0" x2="1" y1="0" y2="1">
      <stop offset="0" stop-color="#070b14"/>
      <stop offset="1" stop-color="#050816"/>
    </linearGradient>
    <linearGradient id="a" x1="0" x2="1" y1="0" y2="0">
      <stop offset="0" stop-color="#66e3ff"/>
      <stop offset="1" stop-color="#a78bfa"/>
    </linearGradient>
    <filter id="b" x="-20%" y="-20%" width="140%" height="140%">
      <feGaussianBlur stdDeviation="20"/>
    </filter>
  </defs>
  <rect width="1200" height="900" fill="url(#bg)"/>
  <circle cx="330" cy="210" r="240" fill="#a78bfa" opacity="0.14" filter="url(#b)"/>
  <circle cx="910" cy="180" r="240" fill="#66e3ff" opacity="0.16" filter="url(#b)"/>
  <rect x="110" y="160" width="980" height="600" rx="40" fill="rgba(255,255,255,0.05)" stroke="rgba(255,255,255,0.12)"/>
  <g transform="translate(190,260)">
    <rect x="0" y="0" width="820" height="180" rx="28" fill="rgba(255,255,255,0.04)" stroke="rgba(255,255,255,0.10)"/>
    <rect x="38" y="44" width="340" height="22" rx="11" fill="rgba(255,255,255,0.10)"/>
    <rect x="38" y="82" width="460" height="22" rx="11" fill="rgba(255,255,255,0.08)"/>
    <rect x="38" y="120" width="420" height="22" rx="11" fill="rgba(255,255,255,0.08)"/>
    <rect x="560" y="46" width="220" height="96" rx="22" fill="rgba(102,227,255,0.10)" stroke="rgba(255,255,255,0.12)"/>
    <path d="M590 118 C640 76, 690 162, 750 100" fill="none" stroke="url(#a)" stroke-width="10" stroke-linecap="round"/>
  </g>
  <g transform="translate(190,480)">
    <rect x="0" y="0" width="820" height="220" rx="28" fill="rgba(255,255,255,0.04)" stroke="rgba(255,255,255,0.10)"/>
    <path d="M90 44 L90 190" stroke="url(#a)" stroke-width="16" stroke-linecap="round"/>
    <circle cx="90" cy="210" r="26" fill="rgba(255,255,255,0.08)" stroke="rgba(255,255,255,0.14)"/>
    <circle cx="90" cy="210" r="12" fill="rgba(255,255,255,0.14)"/>
    <rect x="140" y="54" width="520" height="22" rx="11" fill="rgba(255,255,255,0.10)"/>
    <rect x="140" y="92" width="450" height="22" rx="11" fill="rgba(255,255,255,0.08)"/>
    <rect x="140" y="130" width="500" height="22" rx="11" fill="rgba(255,255,255,0.08)"/>
    <rect x="140" y="168" width="390" height="22" rx="11" fill="rgba(255,255,255,0.08)"/>
  </g>
  <text x="56" y="92" fill="rgba(255,255,255,0.70)" font-family="system-ui,Segoe UI,Arial" font-size="28" font-weight="700">
    Water well drilling
  </text>
</svg>

