<svg xmlns="http://www.w3.org/2000/svg" viewBox="0 0 1200 900">
  <defs>
    <linearGradient id="bg" x1="0" x2="1" y1="0" y2="1">
      <stop offset="0" stop-color="#050816"/>
      <stop offset="1" stop-color="#0b1220"/>
    </linearGradient>
    <linearGradient id="heat" x1="0" x2="1" y1="0" y2="0">
      <stop offset="0" stop-color="#66e3ff"/>
      <stop offset="1" stop-color="#34d399"/>
    </linearGradient>
    <filter id="blur" x="-20%" y="-20%" width="140%" height="140%">
      <feGaussianBlur stdDeviation="18"/>
    </filter>
  </defs>
  <rect width="1200" height="900" fill="url(#bg)"/>
  <circle cx="260" cy="210" r="210" fill="#66e3ff" opacity="0.16" filter="url(#blur)"/>
  <circle cx="990" cy="260" r="240" fill="#34d399" opacity="0.14" filter="url(#blur)"/>
  <rect x="80" y="140" width="1040" height="620" rx="38" fill="rgba(255,255,255,0.05)" stroke="rgba(255,255,255,0.12)"/>
  <g transform="translate(140,210)">
    <rect x="0" y="0" width="920" height="240" rx="28" fill="rgba(255,255,255,0.04)" stroke="rgba(255,255,255,0.10)"/>
    <path d="M80 120 C220 40, 360 200, 520 120 C680 40, 770 220, 860 120" fill="none" stroke="url(#heat)" stroke-width="12" stroke-linecap="round" opacity="0.9"/>
    <path d="M80 160 C220 80, 360 240, 520 160 C680 80, 770 260, 860 160" fill="none" stroke="rgba(167,139,250,0.65)" stroke-width="10" stroke-linecap="round" opacity="0.8"/>
    <circle cx="80" cy="120" r="16" fill="rgba(102,227,255,0.60)"/>
    <circle cx="860" cy="120" r="16" fill="rgba(52,211,153,0.60)"/>
  </g>
  <g transform="translate(140,490)">
    <rect x="0" y="0" width="920" height="220" rx="28" fill="rgba(255,255,255,0.04)" stroke="rgba(255,255,255,0.10)"/>
    <rect x="50" y="46" width="300" height="20" rx="10" fill="rgba(255,255,255,0.10)"/>
    <rect x="50" y="82" width="430" height="20" rx="10" fill="rgba(255,255,255,0.08)"/>
    <rect x="50" y="118" width="380" height="20" rx="10" fill="rgba(255,255,255,0.08)"/>
    <rect x="50" y="154" width="340" height="20" rx="10" fill="rgba(255,255,255,0.08)"/>
    <rect x="560" y="58" width="300" height="120" rx="22" fill="rgba(52,211,153,0.10)" stroke="rgba(255,255,255,0.12)"/>
    <path d="M600 118 C650 70, 720 170, 820 98" fill="none" stroke="url(#heat)" stroke-width="10" stroke-linecap="round"/>
  </g>
  <text x="56" y="92" fill="rgba(255,255,255,0.70)" font-family="system-ui,Segoe UI,Arial" font-size="28" font-weight="700">
    Geothermal drilling
  </text>
</svg>

