<svg xmlns="http://www.w3.org/2000/svg" viewBox="0 0 1200 900">
  <defs>
    <linearGradient id="bg" x1="0" x2="1" y1="0" y2="1">
      <stop offset="0" stop-color="#0b1220"/>
      <stop offset="1" stop-color="#070b14"/>
    </linearGradient>
    <linearGradient id="accent" x1="0" x2="1" y1="0" y2="0">
      <stop offset="0" stop-color="#66e3ff"/>
      <stop offset="1" stop-color="#a78bfa"/>
    </linearGradient>
  </defs>
  <rect width="1200" height="900" fill="url(#bg)"/>
  <path d="M0 650 C180 585, 350 710, 560 650 C770 590, 960 520, 1200 610 L1200 900 L0 900 Z" fill="rgba(255,255,255,0.04)"/>
  <g transform="translate(130,180)">
    <rect x="0" y="0" width="940" height="540" rx="36" fill="rgba(255,255,255,0.05)" stroke="rgba(255,255,255,0.12)"/>
    <rect x="40" y="40" width="860" height="360" rx="28" fill="rgba(255,255,255,0.03)" stroke="rgba(255,255,255,0.10)"/>
    <rect x="40" y="424" width="300" height="76" rx="22" fill="rgba(102,227,255,0.10)" stroke="rgba(255,255,255,0.12)"/>
    <rect x="360" y="424" width="540" height="76" rx="22" fill="rgba(255,255,255,0.04)" stroke="rgba(255,255,255,0.12)"/>
    <g transform="translate(86,92)" opacity="0.9">
      <rect x="0" y="0" width="250" height="220" rx="22" fill="rgba(255,255,255,0.04)" stroke="rgba(255,255,255,0.12)"/>
      <rect x="290" y="0" width="490" height="220" rx="22" fill="rgba(255,255,255,0.04)" stroke="rgba(255,255,255,0.12)"/>
      <path d="M32 166 C90 126, 140 130, 212 84" fill="none" stroke="url(#accent)" stroke-width="10" stroke-linecap="round"/>
      <circle cx="212" cy="84" r="16" fill="rgba(167,139,250,0.55)"/>
      <rect x="316" y="38" width="360" height="20" rx="10" fill="rgba(255,255,255,0.10)"/>
      <rect x="316" y="74" width="300" height="20" rx="10" fill="rgba(255,255,255,0.08)"/>
      <rect x="316" y="110" width="420" height="20" rx="10" fill="rgba(255,255,255,0.08)"/>
      <rect x="316" y="146" width="260" height="20" rx="10" fill="rgba(255,255,255,0.08)"/>
    </g>
  </g>
  <text x="56" y="92" fill="rgba(255,255,255,0.70)" font-family="system-ui,Segoe UI,Arial" font-size="28" font-weight="700">
    Clean access & setup
  </text>
</svg>

